<?xml version="1.0" encoding="iso-8859-1"?>
<!-- Generator: Adobe Illustrator 19.0.0, SVG Export Plug-In . SVG Version: 6.00 Build 0)  -->
<svg version="1.1" id="Layer_1" xmlns="http://www.w3.org/2000/svg" xmlns:xlink="http://www.w3.org/1999/xlink" x="0px" y="0px"
	 viewBox="0 0 512.001 512.001" style="enable-background:new 0 0 512.001 512.001;" xml:space="preserve">
<polyline style="fill:#E6E6E6;" points="182.72,297.605 105.726,297.605 105.726,242.511 237.814,242.511 301.172,242.511 
	415.619,242.511 415.619,297.605 246.066,297.605 "/>
<polyline style="fill:#DD852C;" points="347.651,297.605 329.534,297.605 329.534,242.511 360.615,242.511 375.523,242.511 
	415.619,242.511 415.619,297.605 362.557,297.605 "/>
<polyline style="fill:#FFCA6C;" points="112.972,297.605 105.726,297.605 105.726,242.511 118.157,242.511 124.12,242.511 
	133.272,242.511 133.272,297.605 118.934,297.605 "/>
<path style="fill:#FC583D;" d="M255.999,8.608c-136.63,0-247.391,110.761-247.391,247.392s110.761,247.392,247.392,247.392
	s247.392-110.761,247.392-247.392S392.631,8.608,255.999,8.608z M255.999,53.401c47.878,0,91.867,16.618,126.541,44.386
	L97.786,382.541C70.018,347.868,53.4,303.879,53.4,256.001C53.4,144.108,144.108,53.401,255.999,53.401z M255.999,458.6
	c-47.878,0-91.867-16.618-126.541-44.386L414.214,129.46c27.769,34.673,44.386,78.663,44.386,126.541
	C458.6,367.893,367.892,458.6,255.999,458.6z"/>
<path d="M470.042,115.514c-26.75-40.676-64.266-72.768-108.493-92.808c-4.328-1.962-9.431-0.044-11.394,4.288
	c-1.962,4.329-0.042,9.431,4.288,11.394c41.255,18.694,76.255,48.635,101.214,86.586c25.597,38.923,39.126,84.231,39.126,131.026
	c0,131.666-107.118,238.784-238.784,238.784S17.217,387.666,17.217,256.001S124.335,17.217,256.001,17.217
	c24.579,0,48.808,3.718,72.016,11.049c4.533,1.432,9.369-1.081,10.802-5.615c1.432-4.534-1.082-9.369-5.616-10.802
	C308.315,3.986,282.34,0,256.001,0C187.62,0,123.333,26.629,74.981,74.981S0,187.62,0,256.001s26.629,132.667,74.981,181.02
	c48.352,48.352,112.64,74.981,181.02,74.981s132.667-26.629,181.02-74.981c48.352-48.352,74.981-112.64,74.981-181.02
	C512,205.833,497.492,157.254,470.042,115.514z"/>
<path d="M449.992,256.001c0,106.968-87.023,193.991-193.991,193.991c-7.103,0-14.259-0.388-21.272-1.152
	c-4.72-0.513-8.976,2.898-9.491,7.625c-0.515,4.727,2.898,8.976,7.625,9.491c7.629,0.832,15.415,1.255,23.138,1.255
	c116.461,0,211.208-94.747,211.208-211.208c0-48.501-16.001-94.119-46.276-131.922c-1.53-1.911-3.801-3.08-6.245-3.215
	c-2.433-0.125-4.83,0.778-6.561,2.509L123.372,408.127c-1.731,1.731-2.643,4.116-2.509,6.561c0.135,2.444,1.304,4.715,3.214,6.245
	c21.964,17.59,46.749,30.419,73.665,38.132c4.567,1.307,9.337-1.334,10.647-5.904c1.31-4.57-1.334-9.337-5.904-10.647
	c-21.629-6.197-41.762-15.997-59.976-29.177l162.218-162.218h16.198v37.877H280.59c-4.754,0-8.608,3.854-8.608,8.608
	c0,4.754,3.854,8.608,8.608,8.608h48.898c0.015,0,0.03,0.002,0.045,0.002s0.03-0.002,0.045-0.002h86.039
	c4.754,0,8.608-3.854,8.608-8.608v-55.094c0-4.754-3.854-8.608-8.608-8.608h-93.672l91.393-91.393
	C437.351,175.65,449.992,214.686,449.992,256.001z M407.01,288.996h-68.867v-37.877h68.867V288.996z"/>
<path d="M387.921,91.067c-37.801-30.273-83.419-46.274-131.922-46.274c-116.461,0-211.208,94.747-211.208,211.208
	c0,48.502,16.001,94.12,46.276,131.922c1.53,1.911,3.801,3.08,6.245,3.215c0.158,0.008,0.316,0.013,0.474,0.013
	c2.276,0,4.468-0.903,6.087-2.522l284.754-284.754c1.731-1.731,2.643-4.116,2.509-6.561
	C391.001,94.869,389.832,92.597,387.921,91.067z M114.334,288.996v-37.877h10.329v37.877H114.334z M141.88,251.119h75.154
	l-37.877,37.877H141.88C141.88,288.996,141.88,251.119,141.88,251.119z M234.251,233.902H105.726c-4.754,0-8.608,3.854-8.608,8.608
	v55.094c0,4.754,3.854,8.608,8.608,8.608h56.214l-63.278,63.278C74.65,336.35,62.008,297.314,62.008,255.999
	c0-106.966,87.023-193.991,193.991-193.991c41.315,0,80.35,12.641,113.49,36.653L234.251,233.902z"/>
<path d="M151.465,131.635c0-4.754-3.854-8.608-8.608-8.608c-4.754,0-8.608,3.854-8.608,8.608c0,4.117-0.901,5.768-2.392,8.503
	c-1.897,3.477-4.495,8.24-4.495,16.747c0,8.507,2.597,13.271,4.495,16.747c1.491,2.735,2.392,4.386,2.392,8.504
	c0,4.116-0.9,5.767-2.392,8.502c-1.897,3.477-4.495,8.239-4.495,16.746c0,4.754,3.854,8.608,8.608,8.608
	c4.754,0,8.608-3.854,8.608-8.608c0-4.116,0.9-5.767,2.392-8.502c1.897-3.477,4.495-8.239,4.495-16.746
	c0-8.509-2.597-13.271-4.495-16.747c-1.491-2.735-2.392-4.386-2.392-8.504s0.901-5.769,2.392-8.504
	C148.868,144.904,151.465,140.142,151.465,131.635z"/>
<g>
</g>
<g>
</g>
<g>
</g>
<g>
</g>
<g>
</g>
<g>
</g>
<g>
</g>
<g>
</g>
<g>
</g>
<g>
</g>
<g>
</g>
<g>
</g>
<g>
</g>
<g>
</g>
<g>
</g>
</svg>
