<?xml version="1.0" encoding="iso-8859-1"?>
<!-- Generator: Adobe Illustrator 19.0.0, SVG Export Plug-In . SVG Version: 6.00 Build 0)  -->
<svg version="1.1" id="Layer_1" xmlns="http://www.w3.org/2000/svg" xmlns:xlink="http://www.w3.org/1999/xlink" x="0px" y="0px"
	 viewBox="0 0 512 512" style="enable-background:new 0 0 512 512;" xml:space="preserve">
<rect x="418.909" y="325.818" style="fill:#FAA85F;" width="69.818" height="46.545"/>
<rect x="116.364" y="325.818" style="fill:#FFFFFF;" width="279.273" height="46.545"/>
<path style="fill:#00384E;" d="M500.364,302.545H104.727c-6.435,0-11.636,5.201-11.636,11.636V384
	c0,6.435,5.201,11.636,11.636,11.636h395.636c6.435,0,11.636-5.201,11.636-11.636v-69.818
	C512,307.747,506.799,302.545,500.364,302.545z M116.364,325.818h279.273v46.545H116.364V325.818z M488.727,372.364h-69.818v-46.545
	h69.818V372.364z"/>
<g>
	<path style="fill:#FAA85F;" d="M58.182,395.636c-6.435,0-11.636-5.213-11.636-11.636v-69.818c0-6.423,5.201-11.636,11.636-11.636
		s11.636,5.213,11.636,11.636V384C69.818,390.423,64.617,395.636,58.182,395.636z"/>
	<path style="fill:#FAA85F;" d="M11.636,395.636C5.201,395.636,0,390.423,0,384v-69.818c0-6.423,5.201-11.636,11.636-11.636
		s11.636,5.213,11.636,11.636V384C23.273,390.423,18.071,395.636,11.636,395.636z"/>
</g>
<path style="fill:#BCBEC0;" d="M128,151.273h-23.273c-12.835,0-23.273-10.438-23.273-23.273c0-6.435-5.201-11.636-11.636-11.636
	S58.182,121.565,58.182,128c0,25.67,20.876,46.545,46.545,46.545H128c12.835,0,23.273,10.438,23.273,23.273
	S140.835,221.091,128,221.091H46.545C20.876,221.091,0,241.967,0,267.636c0,6.435,5.201,11.636,11.636,11.636
	s11.636-5.201,11.636-11.636c0-12.835,10.438-23.273,23.273-23.273h6.47c-4.003,6.877-6.47,14.755-6.47,23.273
	c0,6.435,5.201,11.636,11.636,11.636s11.636-5.201,11.636-11.636c0-12.835,10.438-23.273,23.273-23.273H128
	c25.67,0,46.545-20.876,46.545-46.545S153.67,151.273,128,151.273z"/>
<g>
</g>
<g>
</g>
<g>
</g>
<g>
</g>
<g>
</g>
<g>
</g>
<g>
</g>
<g>
</g>
<g>
</g>
<g>
</g>
<g>
</g>
<g>
</g>
<g>
</g>
<g>
</g>
<g>
</g>
</svg>
